<svg width="24" height="24" viewBox="0 0 24 24" fill="none" xmlns="http://www.w3.org/2000/svg">
<path d="M20.4851 2.4H17.3032V9.59985H20.4851V2.4Z" fill="black"/>
<path d="M11.9998 2.43735L2.4541 13.1999V15.3743V21.8255V23.9999H3.51473H11.9998H20.4849H21.5455V21.8255V15.3743V13.1999L11.9998 2.43735Z" fill="#BDC3C7"/>
<path d="M11.9998 3.11997L2.4541 13.8V16.08V16.2L11.9998 5.4L21.5455 16.2V16.08V13.8L11.9998 3.11997Z" fill="#95A5A6"/>
<path d="M12 0L0 13.5599L1.50027 15.2399L12 3.35991L22.4992 15.2399L24 13.5599L12 0Z" fill="black"/>
<path d="M14.1212 10.8C14.1212 11.4365 13.8977 12.047 13.4999 12.4971C13.1021 12.9471 12.5625 13.2 11.9999 13.2C11.4373 13.2 10.8978 12.9471 10.5 12.4971C10.1022 12.047 9.87866 11.4365 9.87866 10.8C9.87866 10.1635 10.1022 9.55303 10.5 9.10294C10.8978 8.65286 11.4373 8.4 11.9999 8.4C12.5625 8.4 13.1021 8.65286 13.4999 9.10294C13.8977 9.55303 14.1212 10.1635 14.1212 10.8Z" fill="black"/>
<path d="M14.1212 16.8H9.87866V24H14.1212V16.8Z" fill="black"/>
<path d="M13.5909 21C13.5909 21.1591 13.535 21.3117 13.4356 21.4243C13.3361 21.5368 13.2012 21.6 13.0606 21.6C12.9199 21.6 12.7851 21.5368 12.6856 21.4243C12.5861 21.3117 12.5303 21.1591 12.5303 21C12.5303 20.8409 12.5861 20.6883 12.6856 20.5757C12.7851 20.4632 12.9199 20.4 13.0606 20.4C13.2012 20.4 13.3361 20.4632 13.4356 20.5757C13.535 20.6883 13.5909 20.8409 13.5909 21Z" fill="black"/>
<path d="M11.9999 8.4C10.8279 8.4 9.87866 9.48 9.87866 10.8C9.87866 10.92 9.90094 11.16 9.94442 11.4C10.1799 10.32 11.0114 9.6 11.9999 9.6C12.9884 9.6 13.82 10.32 14.0554 11.4C14.0989 11.16 14.1212 10.92 14.1212 10.8C14.1212 9.48 13.1719 8.4 11.9999 8.4Z" fill="black"/>
<path d="M13.5909 20.4C13.5909 20.5591 13.535 20.7117 13.4356 20.8243C13.3361 20.9368 13.2012 21 13.0606 21C12.9199 21 12.7851 20.9368 12.6856 20.8243C12.5861 20.7117 12.5303 20.5591 12.5303 20.4C12.5303 20.2409 12.5861 20.0883 12.6856 19.9757C12.7851 19.8632 12.9199 19.8 13.0606 19.8C13.2012 19.8 13.3361 19.8632 13.4356 19.9757C13.535 20.0883 13.5909 20.2409 13.5909 20.4Z" fill="black"/>
<path d="M14.1212 15.6H9.87866V16.8H14.1212V15.6Z" fill="black"/>
</svg>
