<svg width="24" height="24" viewBox="0 0 24 24" fill="none" xmlns="http://www.w3.org/2000/svg">
<path d="M2.99341 7.81609C2.99341 12.1149 7.04639 15.6322 12 15.6322C16.9537 15.6322 21.0067 12.1149 21.0067 7.81609C21.0067 3.51724 16.9537 0 12 0C7.04639 0 2.99341 3.51724 2.99341 7.81609ZM18.8874 7.81609C18.8874 11.1034 15.7881 13.7931 12 13.7931C8.21195 13.7931 5.11261 11.1034 5.11261 7.81609C5.11261 4.52874 8.21195 1.83908 12 1.83908C15.7881 1.83908 18.8874 4.52874 18.8874 7.81609Z" fill="black"/>
<path d="M1.50993 24C4.31788 21.5632 8.02649 20.2299 12 20.2299C15.9735 20.2299 19.6821 21.5632 22.4901 24L24 22.6897C20.7947 19.931 16.5298 18.3908 12 18.3908C7.4702 18.3908 3.2053 19.931 0 22.6897L1.50993 24Z" fill="black"/>
</svg>
