<svg width="24" height="24" viewBox="0 0 24 24" fill="none" xmlns="http://www.w3.org/2000/svg">
<path d="M3.51727 2.03538H4.53647V0.638967C4.53647 0.286317 4.80509 0 5.13595 0H7.17435C7.50521 0 7.77354 0.286317 7.77354 0.638967V2.03538H16.2265V0.638967C16.2265 0.286317 16.4948 0 16.8259 0H18.864C19.1949 0 19.4635 0.286317 19.4635 0.638967V2.03538H20.4827C22.4184 2.03538 24 3.72119 24 5.78465C24 10.6067 24 15.4287 24 20.2507C24 22.3142 22.4184 24 20.4827 24H3.51727C1.58163 24 0 22.3142 0 20.2507C0 15.4287 0 10.6067 0 5.78465C0 3.72119 1.58163 2.03538 3.51727 2.03538ZM3.05297 15.8461H5.51081V18.4659H3.05297V15.8461ZM18.4892 15.8461H20.9473V18.4659H18.4892V15.8461ZM13.3437 15.8461H15.8015V18.4659H13.3437V15.8461ZM8.19848 15.8461H10.6563V18.4659H8.19848V15.8461ZM3.05297 11.8207H5.51081V14.4405H3.05297V11.8207ZM18.4892 11.8207H20.9473V14.4405H18.4892V11.8207ZM13.3437 11.8207H15.8015V14.4405H13.3437V11.8207ZM8.19848 11.8207H10.6563V14.4405H8.19848V11.8207ZM5.73543 2.67435V4.08958H6.57487V2.67435V1.27793H5.73543V2.67435ZM17.4254 4.08958H18.2646V1.27793H17.4254V4.08958ZM1.19896 8.94554H22.801V7.87001H1.19896V8.94554ZM22.801 10.2235H1.19896V20.2507C1.19896 21.6086 2.24334 22.7221 3.51727 22.7221H20.4827C21.7567 22.7221 22.801 21.6086 22.801 20.2507V10.2235ZM1.19896 6.59207H22.801V5.78465C22.801 4.4268 21.7567 3.31331 20.4827 3.31331H19.4635V4.72854C19.4635 5.08119 19.1949 5.36751 18.864 5.36751H16.8259C16.4948 5.36751 16.2265 5.08119 16.2265 4.72854V3.31331H7.77354V4.72854C7.77354 5.08119 7.50521 5.36751 7.17435 5.36751H5.13595C4.80509 5.36751 4.53647 5.08119 4.53647 4.72854V3.31331H3.51727C2.24334 3.31331 1.19896 4.4268 1.19896 5.78465V6.59207Z" fill="black"/>
</svg>
