<svg width="22" height="23" viewBox="0 0 22 23" fill="none" xmlns="http://www.w3.org/2000/svg">
<path d="M14.526 18.1579C14.526 19.121 14.1434 20.0447 13.4624 20.7258C12.7813 21.4069 11.8576 21.7895 10.8945 21.7895C9.93133 21.7895 9.00762 21.4069 8.32657 20.7258C7.64552 20.0447 7.26291 19.121 7.26291 18.1579M11.7673 1.21419L9.99264 1.21056C5.94465 1.20087 2.4305 4.48987 2.40265 8.4737V13.0616C2.40265 14.0179 2.2816 14.9512 1.75987 15.7465L1.41244 16.2767C0.883446 17.0805 1.45239 18.1579 2.40265 18.1579H19.3863C20.3366 18.1579 20.9043 17.0805 20.3765 16.2767L20.0291 15.7465C19.5086 14.9512 19.3863 14.0167 19.3863 13.0604V8.47491C19.3379 4.48987 15.8153 1.22387 11.7673 1.21419V1.21419Z" stroke="#573926" stroke-width="2.4" stroke-linecap="round" stroke-linejoin="round"/>
</svg>
