<svg width="343" height="348" viewBox="0 0 343 348" fill="none" xmlns="http://www.w3.org/2000/svg">
<path d="M223 80C223 35.8172 258.817 0 303 0H343V345H223V80Z" fill="white"/>
<path d="M342.853 345.339H55.1289V347.224H342.853V345.339Z" fill="#353A48"/>
<path d="M152.805 269.941C155.302 250.464 146.233 218.068 142.975 209.164C139.942 200.871 136.597 188.361 136.541 182.524C136.532 182.132 136.545 181.74 136.578 181.349C136.556 180.303 136.219 179.288 135.611 178.44L133.938 185.238L129.65 176.611L131.192 173.061C130.73 172.59 130.256 172.113 129.769 171.641C126.368 168.416 122.808 165.365 119.102 162.499V161.243L84.7753 169.411L84.588 169.555C81.9628 171.858 79.9197 174.757 78.6276 178.013C78.3779 178.609 78.1407 179.269 77.9161 179.897L80.4937 182.254L77.1172 182.737C77.1172 182.869 77.0548 183.008 77.0298 183.146L81.5547 193.563L77.6914 201.342C77.9036 202.234 78.147 203.151 78.4216 204.088C78.9396 205.853 79.5575 207.694 80.294 209.611C83.0527 216.78 81.224 223.672 76.5492 227.417C71.8745 231.162 64.4473 247.102 73.2913 257.413C82.1352 267.723 80.7371 280.371 77.036 288.339C73.4161 296.073 67.1685 306.899 80.0194 320.822C80.4063 321.237 80.8058 321.658 81.2239 322.079H101.24L101.352 321.784C101.44 321.57 101.564 321.243 101.727 320.822C103.318 316.751 108.442 303.745 111.944 296.318C114.696 290.475 118.647 278.172 119.858 263.124C120.07 263.445 120.288 263.753 120.482 264.073C122.279 266.624 124.227 268.942 125.943 271.198C132.184 279.366 128.989 281.333 125.731 298.216C123.284 310.876 129.55 317.637 132.827 320.207C133.414 320.678 134.041 321.099 134.699 321.463L151.551 320.835C151.645 320.647 151.732 320.433 151.819 320.207C154.603 312.529 151.07 283.482 152.805 269.941Z" fill="#353A48"/>
<path d="M84.151 169.656V157.787H86.0234V167.281L117.267 159.98L114.359 151.466L116.125 150.857L119.714 161.343L84.151 169.656Z" fill="#353A48"/>
<path d="M130.249 105.379C127.367 102.4 123.866 100.1 119.996 98.6454C116.126 97.1907 111.984 96.6171 107.868 96.9658L98.1189 97.7826L98.2749 99.6675L108.018 98.8507C111.859 98.5223 115.726 99.0559 119.338 100.413C122.95 101.77 126.218 103.917 128.907 106.698L170.53 149.619L145.116 175.801L130.692 155.468L143.961 145.29L119.04 122.13L114.671 107.873L112.886 108.426L124.744 147.288L77.9345 158.943C78.2903 149.713 79.5011 117.732 79.1828 116.117L77.3478 116.5C77.4477 117.128 77.3478 121.966 77.1543 128.564L76.8548 128.369L57.5317 158.132L77.6724 168.908L68.3728 192.897L27.0492 170.592L55.0726 115.727C56.6377 112.646 58.8841 109.968 61.639 107.898C64.3938 105.829 67.5837 104.423 70.963 103.789L82.7653 101.552L82.4158 99.6675L70.6135 101.929C66.9546 102.618 63.5014 104.143 60.5194 106.385C57.5374 108.628 55.1061 111.53 53.4124 114.866L24.5402 171.377L69.3465 195.561L80.0191 168.028L60.2154 157.473L77.017 131.536C76.7424 140.332 76.343 151.441 75.9997 160.156L75.9498 161.412L127.128 148.676L120.138 125.749L141.059 145.189L128.115 155.116L144.897 178.766L173.152 149.619L130.249 105.379Z" fill="#353A48"/>
<path d="M84.6876 183.573L78.6273 178.012L76.7986 176.322L75.6127 175.235L71.4685 186.444L72.0177 188.662L76.6613 207.619L78.4088 204.1L83.6141 193.626L79.5635 184.308L84.6876 183.573ZM81.5669 193.576L77.7036 201.354L77.2854 202.203L73.4345 186.57L76.4116 178.521L77.9283 179.91L80.5059 182.266L77.1294 182.75L76.8797 182.788L77.042 183.158L81.5669 193.576Z" fill="#353A48"/>
<path d="M133.264 159.395L132.09 160.696L126.742 166.634L131.635 167.344L129.762 171.641L127.578 176.668L134.525 190.66L136.534 182.53L139.374 170.994L139.761 169.411L133.264 159.395ZM135.611 178.44L133.938 185.238L129.65 176.611L131.192 173.061L134.312 165.823L130.474 165.276L133.002 162.462L137.733 169.719L135.611 178.44Z" fill="#353A48"/>
<path d="M88.8379 323.116C83.4205 318.341 84.0883 300.836 88.6881 294.213C92.6202 288.559 95.4537 266.97 86.3477 259.028C83.3393 256.408 81.7104 253.222 81.5106 249.603C81.0987 242.17 86.5848 234.523 91.2658 229.428C98.2623 221.794 93.0071 207.933 92.9509 207.795L94.6985 207.104C94.9357 207.732 100.441 222.183 92.6389 230.709C89.0127 234.668 82.9836 242.371 83.3768 249.496C83.4783 251.071 83.9035 252.607 84.6255 254.008C85.3474 255.408 86.3504 256.643 87.5709 257.633C97.557 266.354 94.5362 289.118 90.2235 295.332C86.1791 301.144 85.4177 317.631 90.0737 321.721L88.8379 323.116Z" fill="#E1E9F1"/>
<path d="M102.157 322.192L100.472 321.363C113.579 294.345 118.041 271.167 119.496 256.495C121.368 237.721 119.152 224.627 116.687 219.123C111.001 206.394 115.208 190.265 115.389 189.592L117.199 190.082C117.155 190.24 112.986 206.249 118.397 218.357C123.727 230.27 126.767 271.336 102.157 322.192Z" fill="#E1E9F1"/>
<path d="M97.0643 340.313L104.554 320.835H77.2357L78.484 345.339L78.5776 347.224H82.0103L82.6344 345.339L83.3085 343.316L86.5665 346.596H104.747V340.313H97.0643ZM82.4909 339.823L80.6684 345.339H80.3564L79.208 322.72H101.82L94.3306 342.198H102.875V344.711H87.3466L82.4909 339.823Z" fill="#353A48"/>
<path d="M148.243 339.684L155.732 320.207H128.414L129.712 345.339L129.775 346.596H133.208L133.626 345.339L134.506 342.688L137.764 345.968H155.926V339.684H148.243ZM133.669 339.194L131.847 344.711H131.535L130.386 322.092H152.999L145.509 341.569H154.053V344.083H138.525L133.669 339.194Z" fill="#353A48"/>
<path d="M87.7271 123.77L86.1917 122.689C87.5648 120.716 88.0641 119.089 87.6834 117.996C87.5367 117.662 87.3194 117.364 87.0467 117.123C86.774 116.882 86.4524 116.704 86.1044 116.601L86.56 114.773C87.1993 114.953 87.79 115.275 88.2882 115.717C88.7864 116.159 89.1791 116.708 89.4372 117.324C90.0738 119.045 89.4996 121.219 87.7271 123.77Z" fill="#BEADD6"/>
<path d="M66.0513 119.724C61.907 118.335 60.5215 114.276 60.4341 114.069L62.2066 113.44C62.2066 113.44 63.3737 116.789 66.5755 117.876L66.0513 119.724Z" fill="#BEADD6"/>
<path d="M54.6295 143.273L53.1316 142.142C53.943 141.049 61.2453 131.542 66.7813 134.326L65.945 136.01C62.4186 134.225 56.583 140.653 54.6295 143.273Z" fill="#BEADD6"/>
<path d="M50.8785 132.34L50.6414 130.455C54.8979 129.921 56.0713 124.348 56.0838 124.291L57.9187 124.662C57.8625 124.957 56.477 131.63 50.8785 132.34Z" fill="#BEADD6"/>
<path d="M41.186 169.518C40.3434 167.821 37.3538 167.042 36.274 166.892L36.5362 165.007C36.7359 165.038 41.4106 165.742 42.8586 168.663L41.186 169.518Z" fill="#BEADD6"/>
<path d="M39.9812 157.353L39.0699 155.707C39.1199 155.676 44.2065 152.773 44.2065 148.99H46.0789C46.0789 153.885 40.2308 157.215 39.9812 157.353Z" fill="#BEADD6"/>
<path d="M59.248 166.269C57.6564 162.003 49.0934 163.09 49.0122 163.128L48.7626 161.243C49.1745 161.193 58.886 159.986 60.9955 165.641L59.248 166.269Z" fill="#BEADD6"/>
<path d="M56.3772 183.234V181.349C59.0672 181.349 66.0512 180.608 66.0512 177.265H67.9236C67.9236 183.165 56.8515 183.234 56.3772 183.234Z" fill="#BEADD6"/>
<path d="M49.1999 176.26L47.3899 175.763C47.521 175.279 48.738 171.032 51.1347 170.247C51.6062 170.102 52.107 170.084 52.5877 170.194C53.0683 170.304 53.5119 170.539 53.8746 170.875L52.7012 172.345C52.1458 171.899 51.8337 172 51.7151 172.037C50.6479 172.377 49.5868 174.708 49.1999 176.26Z" fill="#BEADD6"/>
<path d="M93.8372 149.713C89.7304 149.713 84.8934 146.829 84.6063 146.659L85.5675 145.038C87.9641 146.49 94.6673 149.581 96.8018 146.559L98.3247 147.652C97.2574 149.172 95.6097 149.713 93.8372 149.713Z" fill="#BEADD6"/>
<path d="M109.641 129.934L107.968 129.092C108.064 128.898 108.119 128.686 108.127 128.469C108.136 128.252 108.099 128.036 108.018 127.835C107.244 125.705 103.1 123.519 101.571 122.859L102.307 121.125C102.931 121.401 108.548 123.914 109.797 127.188C109.961 127.632 110.032 128.105 110.006 128.577C109.979 129.05 109.854 129.512 109.641 129.934Z" fill="#BEADD6"/>
<path d="M97.5074 137.687C94.2308 137.687 89.4999 134.458 88.9257 134.055L89.9867 132.51C92.0962 133.974 96.1344 136.154 97.9693 135.758C98.1068 135.739 98.2382 135.689 98.3538 135.612C98.4694 135.535 98.5662 135.432 98.6371 135.312L100.247 136.28C100.044 136.619 99.7723 136.912 99.4499 137.139C99.1274 137.366 98.7613 137.523 98.375 137.599C98.0896 137.659 97.7989 137.688 97.5074 137.687Z" fill="#BEADD6"/>
<path d="M112.237 147.175L110.365 147.036C110.408 146.408 110.87 140.954 113.485 138.818C113.89 138.485 114.359 138.24 114.863 138.101C115.368 137.961 115.895 137.929 116.412 138.008L116.15 139.892C115.886 139.851 115.616 139.868 115.359 139.94C115.102 140.013 114.863 140.14 114.659 140.313C112.973 141.664 112.337 145.723 112.237 147.175Z" fill="#BEADD6"/>
<path d="M105.939 112.617C105.679 112.618 105.421 112.571 105.178 112.479C103.255 111.763 102.419 108.395 102.276 107.729L104.098 107.314C104.379 108.571 105.14 110.456 105.827 110.713C105.883 110.713 106.033 110.789 106.37 110.537L107.493 112.045C107.052 112.404 106.506 112.605 105.939 112.617Z" fill="#BEADD6"/>
<path d="M125.968 110.035H124.095C124.095 107.698 119.421 104.292 116.475 102.696L117.361 101.038C118.241 101.515 125.968 105.825 125.968 110.035Z" fill="#BEADD6"/>
<path d="M133.058 129.5C131.548 127.722 130.855 125.975 131.011 124.31C131.119 123.125 131.673 122.026 132.559 121.238L133.732 122.708L133.145 121.973L133.738 122.702C133.233 123.177 132.924 123.824 132.871 124.518C132.783 125.649 133.32 126.912 134.481 128.288L133.058 129.5Z" fill="#BEADD6"/>
<path d="M155.826 143.757L154.153 142.915C155.576 140.05 149.61 136.632 149.547 136.632L150.446 134.973C150.758 135.143 158.079 139.252 155.826 143.757Z" fill="#BEADD6"/>
<path d="M140.597 138.975C137.658 136.016 140.31 130.581 140.423 130.348L142.095 131.19C141.471 132.447 140.273 135.984 141.92 137.643L140.597 138.975Z" fill="#BEADD6"/>
<path d="M138.763 157.863L137.514 156.455C137.92 156.091 141.559 152.886 144.511 153.615C145.132 153.786 145.699 154.115 146.157 154.57C146.615 155.026 146.949 155.593 147.126 156.216L145.378 156.845C144.929 155.638 144.28 155.481 144.068 155.425C142.376 155.029 139.605 157.102 138.763 157.863Z" fill="#BEADD6"/>
<path d="M145.79 167.011C145.265 167.011 144.742 166.969 144.224 166.885L144.529 165C144.798 165.044 151.133 166.005 152.194 160.105L154.066 160.445C153.099 165.679 148.848 167.011 145.79 167.011Z" fill="#BEADD6"/>
<path d="M157.468 150.335L156.25 148.903C156.525 148.664 159.015 146.591 161.387 147.074C161.95 147.198 162.475 147.456 162.919 147.825C163.363 148.195 163.713 148.665 163.94 149.198L162.267 150.04C162.159 149.769 161.99 149.527 161.774 149.333C161.557 149.139 161.299 148.998 161.019 148.922C159.764 148.677 158.029 149.858 157.468 150.335Z" fill="#BEADD6"/>
<path d="M113.716 90.4188C112.66 89.6519 111.531 88.9931 110.346 88.4521C109.097 87.8741 109.097 87.8741 109.097 85.5305C109.023 83.5123 108.616 81.5206 107.893 79.6369C108.654 76.4953 109.197 68.1136 93.2818 68.1324C93.2818 68.1324 87.6272 66.7313 86.6099 71.1672C86.6099 71.1672 86.6099 71.2174 86.6099 71.2489C85.6487 75.7853 80.3311 74.3904 78.6085 76.8157C76.8859 79.241 77.6723 80.5165 78.4088 83.4445C79.1453 86.3724 76.6987 85.4676 74.5891 87.0636C72.4796 88.6595 69.7396 90.8335 73.3908 92.6304L84.4816 94.9866L82.4407 99.0393C82.1874 99.5355 82.038 100.079 82.0017 100.636C81.9653 101.192 82.0429 101.751 82.2295 102.276C82.4161 102.801 82.7079 103.283 83.0867 103.69C83.4654 104.097 83.9232 104.422 84.4317 104.644L93.0259 108.414C93.5402 108.639 94.0943 108.756 94.6549 108.759C95.2058 108.758 95.7506 108.643 96.2561 108.423C96.7617 108.202 97.2175 107.881 97.5957 107.478C97.974 107.075 98.2669 106.598 98.4566 106.078C98.6463 105.557 98.7289 105.003 98.6993 104.449L98.2062 95.0683C98.6783 94.9996 99.1385 94.8642 99.5731 94.6662C101.002 94.7102 103.942 94.7353 105.04 94.7353C111.032 94.7353 114.303 94.0316 114.777 92.6304C114.958 92.0901 114.92 91.2796 113.716 90.4188ZM99.7541 92.3163C99.3822 92.6526 98.9449 92.9072 98.47 93.0641C97.995 93.2209 97.4929 93.2765 96.9954 93.2273C96.2529 93.16 95.526 92.9733 94.8422 92.6744C94.7094 92.0127 94.3627 91.4139 93.856 90.9717C91.4469 88.8229 89.4434 87.1013 91.1348 85.4928C92.8262 83.8843 92.4829 81.7983 91.2971 80.1018C91.2853 80.086 91.2749 80.0692 91.2659 80.0516C91.1378 79.8507 91.0829 79.6114 91.1106 79.3743C91.1383 79.1373 91.2469 78.9173 91.4179 78.7519C91.5888 78.5865 91.8114 78.486 92.0478 78.4675C92.2842 78.4489 92.5196 78.5136 92.7139 78.6504L95.2104 80.4286L102.132 80.6422C102.132 80.7113 102.132 80.7867 102.132 80.8621C102.129 80.8913 102.129 80.9208 102.132 80.9501V81.1008C102.136 81.1322 102.136 81.1638 102.132 81.1951C102.213 82.5146 102.132 87.717 100.884 90.9214C100.58 91.4416 100.199 91.912 99.7541 92.3163ZM95.8969 106.453C95.5913 106.67 95.2355 106.803 94.8637 106.84C94.492 106.878 94.117 106.818 93.7749 106.667L85.1806 102.897C84.9073 102.777 84.6612 102.602 84.4576 102.383C84.2539 102.164 84.097 101.905 83.9964 101.623C83.8958 101.34 83.8538 101.04 83.8728 100.74C83.8919 100.441 83.9716 100.149 84.1071 99.8812L86.3852 95.395L93.8748 96.9847C94.296 96.2611 94.6054 95.4772 94.7922 94.6599C95.292 94.8338 95.8056 94.9641 96.3276 95.0495L96.8269 104.531C96.8478 104.904 96.7733 105.277 96.6105 105.614C96.4477 105.95 96.2021 106.239 95.8969 106.453ZM102.138 92.7812C102.312 92.4687 102.466 92.1455 102.6 91.8136C104.516 88.5841 104.472 84.0728 104.048 80.793V80.7176L106.32 80.7867C106.872 82.3097 107.184 83.9104 107.244 85.5305C107.244 88.7663 107.649 89.2627 109.553 90.1612C110.636 90.6522 111.667 91.2522 112.63 91.9519L112.78 92.065C111.4 92.6619 106.538 92.9069 102.107 92.7561L102.138 92.7812Z" fill="#353A48"/>
<path d="M242.368 95.2697C241.566 95.2697 240.781 95.5093 240.114 95.958C239.447 96.4068 238.927 97.0446 238.62 97.7909C238.313 98.5372 238.233 99.3583 238.389 100.151C238.546 100.943 238.932 101.67 239.499 102.242C240.067 102.813 240.79 103.202 241.577 103.359C242.364 103.517 243.179 103.436 243.921 103.127C244.662 102.818 245.295 102.294 245.741 101.623C246.187 100.951 246.425 100.162 246.425 99.3538C246.423 98.2712 245.995 97.2333 245.235 96.4678C244.474 95.7022 243.444 95.2714 242.368 95.2697ZM242.368 101.553C241.936 101.553 241.514 101.424 241.155 101.182C240.795 100.941 240.515 100.597 240.35 100.195C240.185 99.7935 240.141 99.3514 240.226 98.9248C240.31 98.4982 240.518 98.1063 240.823 97.7988C241.129 97.4912 241.518 97.2818 241.942 97.1969C242.366 97.1121 242.805 97.1556 243.204 97.3221C243.603 97.4885 243.944 97.7704 244.184 98.132C244.424 98.4937 244.553 98.9189 244.553 99.3538C244.553 99.937 244.322 100.496 243.913 100.909C243.503 101.321 242.947 101.553 242.368 101.553Z" fill="#353A48"/>
<path d="M189.317 104.066C188.638 104.066 187.974 104.269 187.41 104.648C186.845 105.028 186.405 105.568 186.146 106.199C185.886 106.831 185.818 107.525 185.95 108.196C186.083 108.866 186.41 109.482 186.89 109.965C187.37 110.448 187.981 110.778 188.647 110.911C189.313 111.044 190.003 110.976 190.631 110.714C191.258 110.453 191.794 110.01 192.171 109.442C192.548 108.873 192.75 108.205 192.75 107.522C192.748 106.606 192.386 105.728 191.742 105.08C191.099 104.432 190.227 104.068 189.317 104.066ZM189.317 109.092C189.008 109.092 188.707 109 188.45 108.828C188.194 108.655 187.994 108.41 187.875 108.123C187.757 107.836 187.726 107.52 187.787 107.215C187.847 106.91 187.995 106.631 188.214 106.411C188.432 106.191 188.71 106.042 189.013 105.981C189.315 105.92 189.629 105.952 189.914 106.07C190.199 106.189 190.443 106.391 190.614 106.649C190.786 106.907 190.877 107.211 190.877 107.522C190.877 107.938 190.713 108.338 190.42 108.632C190.128 108.927 189.731 109.092 189.317 109.092Z" fill="#353A48"/>
<path d="M237.999 163.756C236.826 163.756 235.68 164.106 234.705 164.762C233.73 165.418 232.97 166.35 232.521 167.441C232.072 168.531 231.955 169.732 232.184 170.889C232.413 172.047 232.977 173.111 233.806 173.946C234.636 174.78 235.692 175.349 236.842 175.579C237.992 175.81 239.185 175.691 240.268 175.24C241.352 174.788 242.278 174.023 242.929 173.041C243.581 172.06 243.928 170.906 243.928 169.725C243.927 168.142 243.301 166.625 242.19 165.506C241.078 164.387 239.571 163.758 237.999 163.756ZM237.999 173.809C237.197 173.809 236.412 173.57 235.745 173.121C235.078 172.672 234.558 172.034 234.251 171.288C233.944 170.542 233.864 169.72 234.02 168.928C234.177 168.136 234.563 167.408 235.13 166.837C235.698 166.266 236.421 165.877 237.208 165.719C237.995 165.562 238.81 165.643 239.552 165.952C240.293 166.261 240.926 166.784 241.372 167.456C241.818 168.128 242.056 168.917 242.056 169.725C242.054 170.808 241.626 171.845 240.866 172.611C240.105 173.377 239.075 173.807 237.999 173.809Z" fill="#353A48"/>
<path d="M191.189 190.145C190.017 190.145 188.87 190.495 187.895 191.151C186.92 191.807 186.16 192.739 185.711 193.83C185.263 194.92 185.145 196.121 185.374 197.279C185.603 198.436 186.167 199.5 186.997 200.335C187.826 201.17 188.882 201.738 190.033 201.968C191.183 202.199 192.375 202.08 193.458 201.629C194.542 201.177 195.468 200.412 196.119 199.43C196.771 198.449 197.118 197.295 197.118 196.114C197.117 194.531 196.492 193.014 195.38 191.895C194.268 190.776 192.761 190.147 191.189 190.145ZM191.189 200.198C190.387 200.198 189.603 199.959 188.935 199.51C188.268 199.061 187.748 198.423 187.441 197.677C187.134 196.931 187.054 196.109 187.21 195.317C187.367 194.525 187.753 193.797 188.321 193.226C188.888 192.655 189.611 192.266 190.398 192.108C191.185 191.951 192 192.032 192.742 192.341C193.483 192.65 194.117 193.173 194.562 193.845C195.008 194.517 195.246 195.306 195.246 196.114C195.244 197.197 194.816 198.234 194.056 199C193.296 199.766 192.265 200.196 191.189 200.198Z" fill="#353A48"/>
<path d="M267.021 76.4203H219.924V56H218.052V76.4203H175.274V208.995H213.758L192.319 345.339L192.175 346.269L194.048 346.565L194.241 345.339L215.668 208.995H222.184L222.084 345.339V345.968H223.956V345.339L224.037 208.995H231.801L253.646 345.339L253.921 347.061L255.793 346.759L255.568 345.339L233.724 208.995H267.021V76.4203ZM265.149 207.11H177.146V78.3052H265.149V207.11Z" fill="#353A48"/>
<path d="M194.447 179.671C194.978 179.96 195.533 180.256 196.114 180.551C200.181 182.557 204.347 184.352 208.596 185.929L210.75 186.746C212.73 187.488 214.786 188.244 216.916 189.015L218.707 189.643L221.628 190.698L222.196 190.906L224.069 191.584C225.816 192.213 227.574 192.841 229.342 193.469L231.365 194.217C235.328 195.681 239.322 197.208 243.286 198.816C247.873 200.701 250.95 201.581 252.897 201.581C254.102 201.581 254.876 201.235 255.3 200.557C257.297 197.333 248.435 188.462 227.713 169.568L227.364 169.248L225.136 167.218L224.081 166.263L222.833 165.126L222.589 164.906L222.209 164.56L220.96 163.404C218.133 160.841 215.3 158.265 212.553 155.739C216.098 154.2 219.5 152.761 222.708 151.404L222.858 151.341C223.382 151.115 223.9 150.901 224.412 150.675C228.075 149.129 231.415 147.703 234.398 146.371C235.463 145.893 236.48 145.426 237.45 144.97C246.032 140.923 250.613 137.719 249.571 134.213L247.773 134.753C248.453 137.04 243.76 139.943 236.314 143.424C235.436 143.843 234.521 144.262 233.568 144.681C230.691 145.969 227.501 147.332 224.125 148.765L223.22 149.154L221.972 149.669C219.163 150.863 216.219 152.12 213.14 153.439L211.03 154.35L210.406 153.797C205.301 149.079 200.589 144.593 196.863 140.741C192.594 136.343 190.865 131.448 191.732 126.233C193.155 117.619 201.282 109.231 209.595 102.703C210.088 102.313 210.587 101.93 211.08 101.553C216.773 97.2671 222.789 93.4353 229.074 90.0925L228.225 88.4086C221.813 91.7851 215.679 95.6721 209.882 100.032L208.397 101.182C199.834 107.911 191.414 116.683 189.885 125.919C188.918 131.762 190.815 137.191 195.502 142.06C199.247 145.931 203.984 150.436 209.102 155.173C205.226 156.87 201.188 158.692 197.019 160.652C189.529 164.171 186.153 167.457 186.321 170.988C186.508 174.117 189.486 176.913 194.447 179.671ZM197.83 162.412C200.984 160.92 204.061 159.511 207.061 158.183L210.6 156.631C213.839 159.609 217.203 162.663 220.542 165.691L221.535 166.596L222.196 167.225L224.037 168.896L225.18 169.933L225.573 170.291L227.795 172.308C234.073 178.032 240.121 183.617 244.727 188.254C253.989 197.566 253.796 199.382 253.665 199.646C253.627 199.69 252.604 200.682 243.941 197.164C239.628 195.411 235.284 193.765 230.978 192.175L228.987 191.402L224.05 189.611L222.24 188.983H222.177L218.963 187.777L217.172 187.148C215.605 186.583 214.051 186.011 212.553 185.446C211.848 185.188 211.149 184.924 210.456 184.66C205.806 182.956 201.248 181.007 196.8 178.823C196.226 178.534 195.671 178.239 195.146 177.944C190.915 175.594 188.281 173.275 188.175 170.976C188.081 168.349 191.32 165.478 197.83 162.412Z" fill="#353A48"/>
<path d="M237.387 145.026L236.27 144.272V143.48C236.109 139.535 235.191 135.659 233.568 132.064C235.602 130.179 237.562 128.357 239.422 126.648C249.009 117.851 254.794 112.517 253.459 108.823C252.666 106.655 249.639 105.574 243.654 105.323C234.204 104.928 224.739 105.545 215.418 107.164L211.049 101.603L210.681 101.138C210.388 100.768 210.107 100.416 209.851 100.083C208.721 98.6627 207.86 97.5694 207.273 96.8657C206.237 95.6091 205.806 95.0813 205.058 95.6593C204.309 96.2374 204.602 96.7212 206.019 98.6564L206.2 98.5182C206.705 99.1465 207.404 100.014 208.365 101.232L209.601 102.753C210.625 104.054 211.873 105.643 213.346 107.578C204.608 109.463 197.793 112.504 196.619 117.003C195.446 121.502 199.983 126.428 210.101 131.612C215.012 134.125 219.587 136.556 223.775 138.913C219.049 143.647 214.578 148.633 210.381 153.848C209.258 155.261 208.141 156.707 207.049 158.183C203.395 163.095 200.109 168.274 197.218 173.677C196.401 175.217 195.721 176.624 195.159 177.918C194.89 178.547 194.653 179.112 194.435 179.671C191.757 186.665 192.993 189.725 194.772 190.981C195.759 191.66 196.936 192.001 198.13 191.955C201.531 191.955 206.094 189.894 210.718 186.721C211.343 186.3 211.967 185.854 212.591 185.395C214.551 183.927 216.426 182.347 218.208 180.664C218.974 179.944 219.72 179.206 220.449 178.453C220.492 178.409 220.536 178.371 220.573 178.327C221.116 177.761 221.653 177.19 222.184 176.599C222.82 175.891 223.444 175.166 224.056 174.425C224.68 173.665 225.304 172.886 225.897 172.094C226.141 171.78 226.378 171.466 226.603 171.139C226.827 170.812 227.177 170.347 227.451 169.945L227.695 169.6C232.457 162.606 235.808 154.639 236.227 146.515C244.54 152.208 249.801 157.555 250.969 162.851C251.736 166.357 250.725 169.845 247.848 173.533L249.321 174.689C252.541 170.548 253.69 166.521 252.772 162.456C251.518 156.644 246.125 151.02 237.387 145.026ZM234.323 143.022C232.026 141.552 229.54 140.05 226.865 138.517C228.637 136.766 230.381 135.09 232.095 133.49C233.371 136.517 234.124 139.74 234.323 143.022ZM243.579 107.208C249.689 107.465 251.356 108.577 251.693 109.47C252.598 111.983 245.907 118.134 238.155 125.259C236.412 126.855 234.593 128.531 232.7 130.286C231.747 128.48 230.638 126.762 229.386 125.152C224.393 118.664 220.174 113.219 216.729 108.816C225.6 107.351 234.598 106.812 243.579 107.208ZM210.962 129.928C201.868 125.266 197.537 120.962 198.442 117.481C199.397 113.805 205.856 110.978 214.638 109.218C217.883 113.378 222.19 118.932 227.901 126.321C229.188 127.981 230.314 129.761 231.265 131.637C229.28 133.522 227.239 135.469 225.173 137.524C220.836 135.092 216.111 132.567 210.962 129.928ZM227.014 167.243C226.777 167.614 226.54 167.978 226.29 168.337C226.041 168.695 225.754 169.128 225.479 169.518L225.204 169.895C224.83 170.416 224.449 170.932 224.062 171.434C223.438 172.226 222.814 172.98 222.19 173.734C221.797 174.211 221.391 174.676 220.979 175.135C220.405 175.763 219.824 176.392 219.232 177.02L218.707 177.554C216.179 180.147 213.428 182.51 210.487 184.616C209.863 185.081 209.208 185.509 208.584 185.911C202.767 189.643 197.886 190.937 195.895 189.467C194.266 188.273 194.379 185.119 196.12 180.532C196.332 179.967 196.569 179.382 196.832 178.779C197.406 177.466 198.08 176.052 198.885 174.551C202.273 168.243 206.194 162.242 210.606 156.612C211.438 155.553 212.27 154.505 213.103 153.471C217.147 148.538 221.347 144.008 225.479 139.855C228.363 141.508 231.046 143.122 233.505 144.712L234.373 145.277C234.373 145.654 234.36 146.031 234.335 146.408C233.942 153.703 231.127 160.847 227.014 167.243Z" fill="#BEADD6"/>
<path d="M58.7399 346.559L58.5487 346.793L58.3752 347H18.341L18.0919 346.793L17.8161 346.559C9.18649 339.119 25.3781 340.317 21.4547 336.427C17.4513 332.462 16.1169 328.057 21.4547 327.176C24.8932 326.608 28.3273 329.145 30.5781 329.846C28.5934 324.499 27.1263 318.978 26.1966 313.357C22.1398 313.696 4.13328 315.009 6.1083 311.097C8.04329 307.26 22.4378 311.758 26.1254 312.987C25.6139 310.031 25.169 306.775 24.8221 303.194C20.5562 303.299 1.85578 303.555 6.98906 299.643C11.851 295.938 21.7394 300.964 24.782 302.643C24.5507 300.167 24.3683 297.546 24.2438 294.762C20.8009 294.515 2.4474 293 5.66793 288.189C8.82173 283.506 21.3969 292.308 24.226 294.357C24.1103 291.634 24.057 288.762 24.0659 285.74C21.1167 284.801 9.91155 281.149 3.88863 277.872C3.40822 277.608 2.95895 277.348 2.55415 277.092C-0.403928 275.237 -1.27134 273.594 2.55415 272.753C2.99483 272.657 3.44026 272.583 3.88863 272.533C13.4435 271.475 21.6371 281.586 24.0659 284.92C24.0659 281.885 24.1771 278.7 24.3505 275.361L25.685 275.431L25.6183 276.801C27.2419 271.312 30.1066 261.022 33.247 264.823C36.5743 268.85 28.3896 276.568 25.5293 279.057C25.4078 282.552 25.3736 285.867 25.427 289.004C28.9278 283.502 39.0209 268.74 43.0332 274.515C47.2412 280.577 30.2712 288.387 25.4537 290.449C25.4537 290.572 25.4537 290.696 25.4537 290.819C25.5249 293.727 25.6583 296.478 25.8541 299.075C28.4385 296.621 43.1399 282.951 44.3588 288.171C45.5776 293.392 28.7321 298.542 25.8807 299.348C26.1387 302.841 26.4946 306.057 26.9172 309.004C28.9545 306.48 36.7612 297.423 42.1391 300.083C47.7706 302.872 30.369 308.431 26.9839 309.471C28.3718 318.956 30.4269 325.656 32.0949 329.929C32.5398 329.753 32.8556 329.313 33.0202 328.498C33.9098 324.092 41.9167 316.163 53.4821 315.282C65.0475 314.401 47.2546 327.617 43.696 333.784C40.1374 339.952 50.3683 337.308 59.2648 336.427C67.1115 335.652 60.4214 344.471 58.7399 346.559Z" fill="#353A48"/>
</svg>
