<svg width="24" height="24" viewBox="0 0 24 24" fill="none" xmlns="http://www.w3.org/2000/svg">
<path d="M20 10.999H22C22 5.869 18.127 2 12.99 2V4C17.052 4 20 6.943 20 10.999Z" fill="black" fill-opacity="0.5"/>
<path d="M13 8C15.103 8 16 8.897 16 11H18C18 7.775 16.225 6 13 6V8ZM16.422 13.443C16.2299 13.2684 15.9774 13.1752 15.7178 13.1832C15.4583 13.1913 15.212 13.2998 15.031 13.486L12.638 15.947C12.062 15.837 10.904 15.476 9.71204 14.287C8.52004 13.094 8.15904 11.933 8.05204 11.361L10.511 8.967C10.6975 8.78613 10.8062 8.53982 10.8142 8.28021C10.8222 8.02059 10.7289 7.76804 10.554 7.576L6.85904 3.513C6.68408 3.32036 6.44092 3.20351 6.18119 3.18726C5.92146 3.17102 5.66564 3.25666 5.46804 3.426L3.29804 5.287C3.12515 5.46052 3.02196 5.69145 3.00804 5.936C2.99304 6.186 2.70704 12.108 7.29904 16.702C11.305 20.707 16.323 21 17.705 21C17.907 21 18.031 20.994 18.064 20.992C18.3086 20.9783 18.5394 20.8747 18.712 20.701L20.572 18.53C20.7415 18.3325 20.8273 18.0768 20.8113 17.8171C20.7952 17.5573 20.6785 17.3141 20.486 17.139L16.422 13.443Z" fill="black" fill-opacity="0.5"/>
</svg>
