<svg width="27" height="24" viewBox="0 0 27 24" fill="none" xmlns="http://www.w3.org/2000/svg">
<path d="M20.9488 3H5.51287C4.30005 3 3.30774 3.9 3.30774 5V19C3.30774 20.1 4.30005 21 5.51287 21H20.9488C22.1616 21 23.1539 20.1 23.1539 19V5C23.1539 3.9 22.1616 3 20.9488 3ZM14.3334 17H8.82056C8.21415 17 7.718 16.55 7.718 16C7.718 15.45 8.21415 15 8.82056 15H14.3334C14.9398 15 15.4359 15.45 15.4359 16C15.4359 16.55 14.9398 17 14.3334 17ZM17.6411 13H8.82056C8.21415 13 7.718 12.55 7.718 12C7.718 11.45 8.21415 11 8.82056 11H17.6411C18.2475 11 18.7436 11.45 18.7436 12C18.7436 12.55 18.2475 13 17.6411 13ZM17.6411 9H8.82056C8.21415 9 7.718 8.55 7.718 8C7.718 7.45 8.21415 7 8.82056 7H17.6411C18.2475 7 18.7436 7.45 18.7436 8C18.7436 8.55 18.2475 9 17.6411 9Z" fill="#D6CCC6"/>
</svg>
