<svg width="17" height="14" viewBox="0 0 17 14" fill="none" xmlns="http://www.w3.org/2000/svg">
<path d="M4.95833 6.19341H6.375V7.31947H4.95833V6.19341ZM14.875 3.37824V11.2607C14.875 11.8801 14.2375 12.3868 13.4583 12.3868H3.54167C3.16594 12.3868 2.80561 12.2681 2.53993 12.057C2.27426 11.8458 2.125 11.5594 2.125 11.2607L2.13208 3.37824C2.13208 2.7589 2.75542 2.25217 3.54167 2.25217H4.25V1.1261H5.66667V2.25217H11.3333V1.1261H12.75V2.25217H13.4583C14.2375 2.25217 14.875 2.7589 14.875 3.37824ZM3.54167 4.5043H13.4583V3.37824H3.54167V4.5043ZM13.4583 11.2607V5.63037H3.54167V11.2607H13.4583ZM10.625 7.31947H12.0417V6.19341H10.625V7.31947ZM7.79167 7.31947H9.20833V6.19341H7.79167V7.31947Z" fill="#A635FE"/>
</svg>
