<svg width="24" height="24" viewBox="0 0 24 24" fill="none" xmlns="http://www.w3.org/2000/svg">
<path d="M22.4292 4.56161H16.3374C16.3989 3.98539 16.3337 3.40321 16.1462 2.85269C15.9588 2.30217 15.6531 1.79558 15.249 1.36565C14.845 0.935716 14.3515 0.592024 13.8005 0.356786C13.2495 0.121548 12.6532 0 12.0503 0C11.4473 0 10.851 0.121548 10.3 0.356786C9.74903 0.592024 9.25555 0.935716 8.85148 1.36565C8.44742 1.79558 8.14176 2.30217 7.95428 2.85269C7.7668 3.40321 7.70166 3.98539 7.76308 4.56161H1.57095C1.15447 4.56199 0.755149 4.72109 0.460647 5.004C0.166145 5.28691 0.000520243 5.6705 0.00012453 6.07059V16.4416C0.00012453 16.442 0 16.4424 0 16.4428C0 16.4431 0.000119548 16.4435 0.00012453 16.4439V18.4167C0.000520243 18.8168 0.166145 19.2004 0.460647 19.4833C0.755149 19.7662 1.15447 19.9253 1.57095 19.9257H10.1162L9.60402 23.5214H8.38911C8.32304 23.5214 8.25968 23.5466 8.21297 23.5915C8.16625 23.6364 8.14001 23.6972 8.14001 23.7607C8.14001 23.8242 8.16625 23.885 8.21297 23.9299C8.25968 23.9748 8.32304 24 8.38911 24H9.8212L9.82201 23.9999H14.2735L14.2744 24H15.7064C15.7725 24 15.8359 23.9748 15.8826 23.9299C15.9293 23.885 15.9556 23.8242 15.9556 23.7607C15.9556 23.6972 15.9293 23.6364 15.8826 23.5915C15.8359 23.5466 15.7725 23.5214 15.7064 23.5214H14.4918L13.9796 19.9257H22.4292C22.8456 19.9253 23.2449 19.7661 23.5394 19.4832C23.8339 19.2003 23.9995 18.8168 24 18.4167V6.07058C23.9995 5.67052 23.8339 5.28697 23.5394 5.00408C23.2449 4.72119 22.8456 4.56207 22.4292 4.56161ZM22.4292 5.04019C22.7136 5.04045 22.9862 5.14909 23.1873 5.34227C23.3884 5.53545 23.5015 5.79739 23.5018 6.07059V6.64059H15.4808C15.8566 6.16715 16.1212 5.62118 16.2565 5.04019H22.4292ZM12.0503 0.476599C12.8041 0.476599 13.541 0.691333 14.1678 1.09365C14.7945 1.49596 15.2831 2.06778 15.5715 2.7368C15.86 3.40583 15.9355 4.142 15.7884 4.85223C15.6414 5.56246 15.2784 6.21485 14.7453 6.72689C14.2123 7.23894 13.5332 7.58765 12.7938 7.72892C12.0545 7.8702 11.2881 7.79769 10.5917 7.52057C9.89526 7.24345 9.3 6.77417 8.8812 6.17206C8.4624 5.56996 8.23887 4.86208 8.23887 4.13793C8.24002 3.16722 8.64194 2.23659 9.35647 1.5502C10.071 0.863802 11.0398 0.477701 12.0503 0.476599ZM1.57095 5.04019H7.84404C7.97932 5.62118 8.24393 6.16715 8.61969 6.64059H0.498331V6.07059C0.498595 5.79739 0.611688 5.53545 0.812786 5.34227C1.01389 5.14909 1.28656 5.04045 1.57095 5.04019ZM13.9886 23.5213H10.1066L10.6188 19.9257H13.4765L13.9886 23.5213ZM22.4292 19.4471H1.57095C1.28658 19.4468 1.01396 19.3381 0.812878 19.1449C0.611797 18.9518 0.498676 18.6899 0.498326 18.4167V16.682H19.9209C19.987 16.682 20.0503 16.6568 20.0971 16.6119C20.1438 16.5671 20.17 16.5062 20.17 16.4427C20.17 16.3793 20.1438 16.3184 20.0971 16.2735C20.0503 16.2286 19.987 16.2034 19.9209 16.2034H0.498331V7.11917H9.06322C9.8651 7.86247 10.9359 8.27786 12.0503 8.27786C13.1646 8.27786 14.2354 7.86247 15.0373 7.11917H23.5018V16.2034H21.0362C20.9701 16.2034 20.9068 16.2286 20.8601 16.2735C20.8133 16.3184 20.7871 16.3793 20.7871 16.4427C20.7871 16.5062 20.8133 16.5671 20.8601 16.6119C20.9068 16.6568 20.9701 16.682 21.0362 16.682H23.5018V18.4167C23.5014 18.6899 23.3883 18.9518 23.1872 19.1449C22.9862 19.3381 22.7135 19.4468 22.4292 19.4471Z" fill="black"/>
<path d="M11.9999 17.2665C11.8351 17.2665 11.6741 17.3134 11.537 17.4014C11.4 17.4893 11.2932 17.6143 11.2302 17.7605C11.1671 17.9068 11.1506 18.0677 11.1828 18.223C11.2149 18.3782 11.2943 18.5209 11.4108 18.6328C11.5273 18.7447 11.6758 18.821 11.8374 18.8518C11.999 18.8827 12.1665 18.8669 12.3188 18.8063C12.471 18.7457 12.6011 18.6431 12.6927 18.5115C12.7842 18.3799 12.8331 18.2251 12.8331 18.0668C12.8329 17.8546 12.745 17.6512 12.5888 17.5011C12.4326 17.3511 12.2208 17.2667 11.9999 17.2665ZM11.9999 18.3886C11.9337 18.3886 11.8689 18.3698 11.8138 18.3344C11.7587 18.299 11.7158 18.2488 11.6905 18.19C11.6651 18.1312 11.6585 18.0665 11.6714 18.0041C11.6843 17.9416 11.7162 17.8843 11.7631 17.8393C11.8099 17.7943 11.8696 17.7636 11.9346 17.7512C11.9996 17.7388 12.0669 17.7452 12.1281 17.7695C12.1893 17.7939 12.2416 17.8351 12.2784 17.8881C12.3153 17.941 12.3349 18.0032 12.3349 18.0668C12.3348 18.1521 12.2995 18.2339 12.2367 18.2943C12.1739 18.3546 12.0887 18.3885 11.9999 18.3886Z" fill="black"/>
<path d="M7.49463 10.5114C7.47542 10.5037 7.45723 10.4938 7.44043 10.482C7.42664 10.4725 7.41518 10.4602 7.40682 10.446C7.39846 10.4317 7.39341 10.416 7.39202 10.3997C7.39021 10.3797 7.39284 10.3595 7.39972 10.3405C7.4066 10.3215 7.41759 10.3041 7.43196 10.2895C7.50661 10.2118 7.56343 10.1199 7.59874 10.0197C7.63405 9.91955 7.64706 9.81338 7.63694 9.70808C7.62178 9.53533 7.54436 9.37307 7.41801 9.24928C7.29166 9.12549 7.12431 9.04793 6.94481 9.02998C6.83502 9.01798 6.72384 9.02839 6.61854 9.06054C6.51324 9.09269 6.4162 9.14585 6.33377 9.21653C6.25135 9.28722 6.1854 9.37383 6.14024 9.4707C6.09508 9.56757 6.07174 9.67251 6.07174 9.77865C6.07148 9.96893 6.14657 10.1522 6.28177 10.2912C6.29695 10.3068 6.3082 10.3256 6.31464 10.3461C6.32108 10.3665 6.32256 10.3881 6.31894 10.4092C6.31615 10.428 6.30887 10.446 6.29767 10.4616C6.28647 10.4773 6.27165 10.4903 6.25438 10.4995C6.24586 10.5041 6.23707 10.5081 6.22806 10.5117C6.06633 10.5772 5.92862 10.6876 5.83252 10.8287C5.73642 10.9698 5.68629 11.1353 5.68855 11.3039V11.3362C5.68868 11.4478 5.73487 11.5548 5.81699 11.6337C5.89912 11.7126 6.01047 11.7569 6.12661 11.7571H7.5969C7.71304 11.7569 7.82439 11.7126 7.90652 11.6337C7.98864 11.5548 8.03483 11.4478 8.03496 11.3362V11.3087C8.03715 11.1393 7.98698 10.9732 7.89079 10.8312C7.7946 10.6893 7.65672 10.578 7.49463 10.5114ZM7.58658 11.3264H6.13693V11.3039C6.13565 11.2208 6.15978 11.1392 6.20632 11.0692C6.25287 10.9992 6.31979 10.9438 6.39878 10.91C6.42373 10.9001 6.44808 10.8889 6.47171 10.8763C6.54863 10.8355 6.61477 10.7783 6.66505 10.709C6.71533 10.6398 6.7484 10.5604 6.76173 10.477C6.77628 10.3912 6.77015 10.3034 6.74382 10.2203C6.71748 10.1372 6.67165 10.061 6.60983 9.99762C6.56539 9.95162 6.53588 9.89418 6.5249 9.83232C6.51392 9.77046 6.52196 9.70687 6.54803 9.64933C6.5741 9.59179 6.61707 9.5428 6.67168 9.50836C6.72629 9.47392 6.79016 9.45552 6.85549 9.45543C6.92082 9.45533 6.98475 9.47353 7.03947 9.5078C7.0942 9.54208 7.13733 9.59093 7.16359 9.64839C7.18984 9.70585 7.19809 9.76942 7.18732 9.83132C7.17654 9.89321 7.14722 9.95074 7.10292 9.99687C7.04554 10.0562 7.00187 10.1264 6.97479 10.2031C6.9477 10.2798 6.93781 10.3611 6.94578 10.4417C6.95352 10.5184 6.9781 10.5928 7.0179 10.6598C7.0577 10.7267 7.11181 10.7849 7.17668 10.8303C7.22176 10.8618 7.27049 10.8882 7.32191 10.9089L7.32206 10.9089C7.40192 10.9436 7.4695 10.9998 7.5165 11.0708C7.56351 11.1419 7.58787 11.2245 7.5866 11.3087L7.58658 11.3264Z" fill="black"/>
<path d="M10.5308 6.53746H13.4688C13.6626 6.53725 13.8484 6.4632 13.9854 6.33156C14.1225 6.19992 14.1996 6.02143 14.1998 5.83526L14.2 3.72892C14.1997 3.55087 14.1291 3.37956 14.0023 3.24964C13.8756 3.11972 13.7022 3.04087 13.5173 3.02903V2.71708C13.5173 2.34412 13.3631 1.98644 13.0885 1.72272C12.814 1.45899 12.4417 1.31084 12.0534 1.31084C11.6652 1.31084 11.2928 1.45899 11.0183 1.72272C10.7438 1.98644 10.5895 2.34412 10.5895 2.71708V3.02673H10.531C10.3372 3.02694 10.1514 3.10098 10.0144 3.23261C9.87737 3.36425 9.80028 3.54273 9.80005 3.72889L9.7998 5.83524C9.80002 6.02142 9.87711 6.19991 10.0141 6.33155C10.1512 6.4632 10.337 6.53725 10.5308 6.53746ZM11.0877 2.71708C11.0877 2.47105 11.1895 2.2351 11.3706 2.06113C11.5517 1.88716 11.7973 1.78942 12.0534 1.78942C12.3095 1.78942 12.5551 1.88716 12.7362 2.06113C12.9173 2.2351 13.0191 2.47105 13.0191 2.71708V3.02673H11.0877V2.71708ZM10.2983 3.72894C10.2983 3.66965 10.3229 3.61281 10.3665 3.57089C10.4102 3.52896 10.4693 3.50538 10.5311 3.5053H13.469C13.5307 3.50538 13.5899 3.52895 13.6335 3.57087C13.6772 3.61278 13.7017 3.66961 13.7018 3.72889L13.7016 5.83524C13.7015 5.89453 13.677 5.95137 13.6333 5.99329C13.5897 6.03521 13.5305 6.0588 13.4688 6.05887H10.5308C10.4691 6.0588 10.4099 6.03522 10.3663 5.99331C10.3226 5.95139 10.2981 5.89457 10.298 5.83528L10.2983 3.72894Z" fill="black"/>
<path d="M11.8005 5.13997V5.49125C11.8005 5.54202 11.8214 5.59072 11.8588 5.62662C11.8962 5.66252 11.9469 5.68269 11.9997 5.68269C12.0526 5.68269 12.1033 5.66252 12.1406 5.62662C12.178 5.59072 12.199 5.54202 12.199 5.49125V5.13997C12.352 5.09419 12.4829 4.99724 12.5679 4.86671C12.6529 4.73619 12.6864 4.58072 12.6623 4.42852C12.6381 4.27631 12.5581 4.13744 12.4365 4.0371C12.315 3.93675 12.16 3.88158 11.9997 3.88158C11.8395 3.88158 11.6845 3.93675 11.563 4.0371C11.4414 4.13744 11.3613 4.27631 11.3372 4.42852C11.3131 4.58072 11.3466 4.73619 11.4316 4.86671C11.5166 4.99724 11.6474 5.09419 11.8005 5.13997ZM11.9997 4.26435C12.0535 4.26435 12.106 4.27964 12.1506 4.30831C12.1953 4.33698 12.2301 4.37773 12.2507 4.4254C12.2712 4.47308 12.2766 4.52554 12.2661 4.57616C12.2557 4.62677 12.2298 4.67326 12.1918 4.70975C12.1538 4.74624 12.1054 4.77109 12.0527 4.78116C12.0001 4.79123 11.9454 4.78606 11.8958 4.76631C11.8462 4.74656 11.8038 4.71311 11.7739 4.6702C11.7441 4.62729 11.7281 4.57684 11.7282 4.52524C11.7282 4.45607 11.7569 4.38976 11.8078 4.34085C11.8587 4.29194 11.9277 4.26443 11.9997 4.26435Z" fill="black"/>
<path d="M16.6192 9.00134H9.13008C8.94691 9.00154 8.7713 9.07153 8.64179 9.19594C8.51227 9.32036 8.43941 9.48905 8.43921 9.66501V11.1173C8.43941 11.2933 8.51226 11.462 8.64178 11.5864C8.7713 11.7108 8.9469 11.7808 9.13008 11.781H16.6192C16.8023 11.7808 16.9779 11.7108 17.1075 11.5864C17.237 11.462 17.3098 11.2933 17.31 11.1173V9.66501C17.3098 9.48905 17.237 9.32036 17.1074 9.19594C16.9779 9.07153 16.8023 9.00154 16.6192 9.00134ZM16.8118 11.1173C16.8118 11.1664 16.7915 11.2134 16.7553 11.2482C16.7192 11.2829 16.6702 11.3024 16.6192 11.3024H9.13008C9.07899 11.3024 9.03001 11.2829 8.99389 11.2482C8.95777 11.2134 8.93746 11.1664 8.93741 11.1173V9.66501C8.93746 9.61594 8.95778 9.56889 8.9939 9.53419C9.03002 9.49949 9.07899 9.47998 9.13008 9.47993H16.6192C16.6702 9.47998 16.7192 9.49949 16.7553 9.53419C16.7915 9.56889 16.8118 9.61594 16.8118 9.66501V11.1173Z" fill="black"/>
<path d="M11.3114 10.1307H10.5528C10.4867 10.1307 10.4234 10.1559 10.3767 10.2008C10.33 10.2457 10.3037 10.3065 10.3037 10.37C10.3037 10.4335 10.33 10.4943 10.3767 10.5392C10.4234 10.5841 10.4867 10.6093 10.5528 10.6093H11.3114C11.3774 10.6093 11.4408 10.5841 11.4875 10.5392C11.5342 10.4943 11.5605 10.4335 11.5605 10.37C11.5605 10.3065 11.5342 10.2457 11.4875 10.2008C11.4408 10.1559 11.3774 10.1307 11.3114 10.1307Z" fill="black"/>
<path d="M13.2601 10.1307H12.5015C12.4355 10.1307 12.3721 10.1559 12.3254 10.2008C12.2787 10.2457 12.2524 10.3065 12.2524 10.37C12.2524 10.4335 12.2787 10.4943 12.3254 10.5392C12.3721 10.5841 12.4355 10.6093 12.5015 10.6093H13.2601C13.3261 10.6093 13.3895 10.5841 13.4362 10.5392C13.4829 10.4943 13.5092 10.4335 13.5092 10.37C13.5092 10.3065 13.4829 10.2457 13.4362 10.2008C13.3895 10.1559 13.3262 10.1307 13.2601 10.1307Z" fill="black"/>
<path d="M15.2093 10.1307H14.4508C14.3847 10.1307 14.3213 10.1559 14.2746 10.2008C14.2279 10.2457 14.2017 10.3065 14.2017 10.37C14.2017 10.4335 14.2279 10.4943 14.2746 10.5392C14.3213 10.5841 14.3847 10.6093 14.4508 10.6093H15.2093C15.2754 10.6093 15.3387 10.5841 15.3855 10.5392C15.4322 10.4943 15.4584 10.4335 15.4584 10.37C15.4584 10.3065 15.4322 10.2457 15.3855 10.2008C15.3387 10.1559 15.2754 10.1307 15.2093 10.1307Z" fill="black"/>
<path d="M16.6192 12.3329H9.13008C8.94691 12.3331 8.77131 12.4031 8.64179 12.5275C8.51227 12.6519 8.43942 12.8206 8.43921 12.9966V14.4489C8.43941 14.6248 8.51227 14.7935 8.64179 14.9179C8.7713 15.0424 8.94691 15.1123 9.13008 15.1125H16.6192C16.8023 15.1123 16.9779 15.0424 17.1074 14.9179C17.237 14.7935 17.3098 14.6248 17.31 14.4489V12.9966C17.3098 12.8206 17.237 12.6519 17.1074 12.5275C16.9779 12.4031 16.8023 12.3331 16.6192 12.3329ZM16.8118 14.4489C16.8118 14.4979 16.7915 14.545 16.7553 14.5797C16.7192 14.6144 16.6702 14.6339 16.6192 14.634H9.13008C9.07899 14.6339 9.03002 14.6144 8.9939 14.5797C8.95778 14.545 8.93746 14.4979 8.93741 14.4489V12.9966C8.93746 12.9475 8.95778 12.9004 8.9939 12.8657C9.03002 12.831 9.07899 12.8115 9.13008 12.8115H16.6192C16.6702 12.8115 16.7192 12.831 16.7553 12.8657C16.7915 12.9004 16.8118 12.9475 16.8118 12.9966V14.4489Z" fill="black"/>
<path d="M11.3114 13.4834H10.5528C10.4867 13.4834 10.4234 13.5086 10.3767 13.5535C10.33 13.5984 10.3037 13.6593 10.3037 13.7227C10.3037 13.7862 10.33 13.8471 10.3767 13.8919C10.4234 13.9368 10.4867 13.962 10.5528 13.962H11.3114C11.3774 13.962 11.4408 13.9368 11.4875 13.8919C11.5342 13.8471 11.5605 13.7862 11.5605 13.7227C11.5605 13.6593 11.5342 13.5984 11.4875 13.5535C11.4408 13.5086 11.3774 13.4834 11.3114 13.4834Z" fill="black"/>
<path d="M13.2601 13.4834H12.5015C12.4355 13.4834 12.3721 13.5086 12.3254 13.5535C12.2787 13.5984 12.2524 13.6593 12.2524 13.7227C12.2524 13.7862 12.2787 13.8471 12.3254 13.8919C12.3721 13.9368 12.4355 13.962 12.5015 13.962H13.2601C13.3261 13.962 13.3895 13.9368 13.4362 13.8919C13.4829 13.8471 13.5092 13.7862 13.5092 13.7227C13.5092 13.6593 13.4829 13.5984 13.4362 13.5535C13.3895 13.5086 13.3262 13.4834 13.2601 13.4834Z" fill="black"/>
<path d="M15.2093 13.4834H14.4508C14.3847 13.4834 14.3213 13.5086 14.2746 13.5535C14.2279 13.5984 14.2017 13.6593 14.2017 13.7227C14.2017 13.7862 14.2279 13.8471 14.2746 13.8919C14.3213 13.9368 14.3847 13.962 14.4508 13.962H15.2093C15.2754 13.962 15.3387 13.9368 15.3855 13.8919C15.4322 13.8471 15.4584 13.7862 15.4584 13.7227C15.4584 13.6593 15.4322 13.5984 15.3855 13.5535C15.3387 13.5086 15.2754 13.4834 15.2093 13.4834Z" fill="black"/>
<path d="M7.62926 13.3351V12.9067C7.62911 12.7754 7.57475 12.6496 7.4781 12.5567C7.38146 12.4639 7.25042 12.4116 7.11374 12.4115H6.60921C6.47252 12.4116 6.34147 12.4638 6.24482 12.5567C6.14817 12.6495 6.0938 12.7754 6.09364 12.9067V13.3351C6.01872 13.374 5.95613 13.4316 5.91248 13.5018C5.86884 13.572 5.84576 13.6523 5.8457 13.7341V14.56C5.84584 14.6802 5.89562 14.7955 5.98411 14.8805C6.0726 14.9655 6.19258 15.0133 6.31773 15.0135H7.40516C7.53032 15.0133 7.65031 14.9655 7.73881 14.8805C7.82731 14.7955 7.87709 14.6802 7.87724 14.56V13.7341C7.87717 13.6523 7.85409 13.572 7.81044 13.5018C7.76679 13.4316 7.70418 13.374 7.62926 13.3351ZM6.60921 12.8422H7.11374C7.13154 12.8422 7.14861 12.849 7.16119 12.8611C7.17378 12.8732 7.18086 12.8896 7.18087 12.9067V13.2806H6.54202V12.9067C6.54205 12.8896 6.54913 12.8732 6.56173 12.8611C6.57432 12.849 6.5914 12.8422 6.60921 12.8422ZM7.42886 14.56C7.42885 14.566 7.42635 14.5718 7.42191 14.5761C7.41746 14.5803 7.41144 14.5827 7.40516 14.5827H6.31773C6.31146 14.5827 6.30545 14.5803 6.30102 14.5761C6.29658 14.5718 6.29409 14.566 6.29408 14.56V13.7341C6.29409 13.7281 6.29658 13.7223 6.30102 13.718C6.30545 13.7138 6.31146 13.7114 6.31773 13.7114H7.40516C7.41144 13.7114 7.41746 13.7138 7.42191 13.718C7.42635 13.7223 7.42885 13.728 7.42886 13.7341V14.56Z" fill="black"/>
</svg>
